<?xml version="1.0" standalone="no"?>
<!DOCTYPE svg PUBLIC "-//W3C//DTD SVG 20010904//EN"
 "http://www.w3.org/TR/2001/REC-SVG-20010904/DTD/svg10.dtd">
<svg version="1.0" xmlns="http://www.w3.org/2000/svg"
 width="294.000000pt" height="294.000000pt" viewBox="0 0 294.000000 294.000000"
 preserveAspectRatio="xMidYMid meet">
<metadata>
Created by potrace 1.14, written by Peter Selinger 2001-2017
</metadata>
<g transform="translate(0.000000,294.000000) scale(0.100000,-0.100000)"
fill="#000000" stroke="none">
<path d="M2240 2905 l0 -35 -70 0 -70 0 0 -35 c0 -33 -2 -35 -35 -35 -33 0
-35 -2 -35 -35 0 -33 -2 -35 -35 -35 -33 0 -35 -2 -35 -35 0 -33 -2 -35 -35
-35 l-35 0 0 -70 0 -70 -35 0 c-33 0 -35 -2 -35 -35 l0 -35 -105 0 -105 0 0
35 0 35 -210 0 -210 0 0 -35 0 -35 -105 0 -105 0 0 35 c0 33 -2 35 -35 35
l-35 0 0 70 0 70 -35 0 c-33 0 -35 2 -35 35 0 33 -2 35 -35 35 -33 0 -35 2
-35 35 l0 35 -70 0 -70 0 0 35 0 35 -140 0 -140 0 0 -35 0 -35 -70 0 -70 0 0
-35 c0 -33 -2 -35 -35 -35 -33 0 -35 -2 -35 -35 0 -33 -2 -35 -35 -35 l-35 0
0 -70 0 -70 -35 0 -35 0 0 -210 0 -210 35 0 c33 0 35 -2 35 -35 0 -33 2 -35
35 -35 33 0 35 -2 35 -35 0 -33 2 -35 35 -35 33 0 35 -2 35 -35 0 -33 2 -35
35 -35 33 0 35 -2 35 -35 0 -33 2 -35 35 -35 l35 0 0 -105 0 -105 -35 0 -35 0
0 -140 0 -140 35 0 35 0 0 -70 0 -70 35 0 c33 0 35 -2 35 -35 0 -33 -2 -35
-35 -35 l-35 0 0 -175 0 -175 35 0 35 0 0 -70 0 -70 35 0 c33 0 35 -2 35 -35
0 -33 2 -35 35 -35 33 0 35 -2 35 -35 l0 -35 70 0 70 0 0 -70 0 -70 -140 0
-140 0 0 -35 0 -35 -105 0 -105 0 0 -35 c0 -33 -2 -35 -35 -35 -33 0 -35 -2
-35 -35 l0 -35 -70 0 -70 0 0 -70 0 -70 1435 0 1435 0 0 35 c0 33 -2 35 -35
35 -33 0 -35 2 -35 35 0 33 -2 35 -35 35 -33 0 -35 2 -35 35 0 33 -2 35 -35
35 -33 0 -35 2 -35 35 l0 35 -70 0 -70 0 0 35 0 35 -105 0 -105 0 0 35 c0 33
-2 35 -35 35 -33 0 -35 2 -35 35 l0 35 70 0 70 0 0 35 c0 33 2 35 35 35 33 0
35 2 35 35 0 33 2 35 35 35 l35 0 0 70 0 70 35 0 35 0 0 140 0 140 -35 0 -35
0 0 70 0 70 -35 0 c-33 0 -35 2 -35 35 0 33 2 35 35 35 33 0 35 2 35 35 0 33
2 35 35 35 l35 0 0 70 0 70 35 0 35 0 0 105 0 105 35 0 c33 0 35 2 35 35 0 33
2 35 35 35 33 0 35 2 35 35 0 33 2 35 35 35 l35 0 0 105 0 105 -35 0 c-33 0
-35 2 -35 35 0 33 2 35 35 35 l35 0 0 70 0 70 35 0 35 0 0 175 0 175 -35 0
-35 0 0 70 0 70 -35 0 c-33 0 -35 2 -35 35 0 33 -2 35 -35 35 -33 0 -35 2 -35
35 l0 35 -70 0 -70 0 0 35 0 35 -175 0 -175 0 0 -35z"/>
</g>
</svg>
